# xmcd CD database file
#
# Track frame offsets:
#	150
#	29307
#	45450
#	61907
#	80620
#	81195
#	92570
#	113712
#	130757
#	147232
#	161085
#	176690
#
# Disc length: 2493 seconds
#
# Revision: 4
# Processed by: cddbd v1.5PL3 Copyright (c) Steve Scherf et al.
# Submitted via: CDex 1.51
#
DISCID=9609bb0c
DTITLE=Jools Holland - World Of His Own
DYEAR=1990
DGENRE=Jazz
TTITLE0=Architectural Number
TTITLE1=The Maiden's Lament
TTITLE2=Honey Dripper
TTITLE3=Thursday
TTITLE4=Harp Solo
TTITLE5=Biggy Wiggy
TTITLE6=Holy Cow
TTITLE7=In The Heat Of The Night
TTITLE8=Biggy Wiggy [instrumental]
TTITLE9=We're Through
TTITLE10=Grand Hotel
TTITLE11=Danger Zone
EXTD=YEAR: 1990
EXTT0=
EXTT1=
EXTT2=
EXTT3=In three movements:\nAwakening\nElevensies\nSlumber
EXTT4=
EXTT5=
EXTT6=
EXTT7=
EXTT8=
EXTT9=
EXTT10=
EXTT11=
PLAYORDER=
